<svg width="53" height="11" fill="none" xmlns="http://www.w3.org/2000/svg"><path d="M.05.29V11h1.755V3.62h.06L5.015 11H6.53l3.15-7.38h.06V11h1.755V.29H9.44l-3.63 8.4h-.06L2.105.29H.05Zm19.325.615H15.49v-.39h4.275v.39h.78v.39h.39v.39h.39v.39h.39v-.39h.39V.515h.39v4.47h-.39V4.01h-.39v-.39h-.39v-.78h-.39v-.39h-.39v-.39h-.39v-.39h-.39v-.39h-.39V.905ZM16.27 10.61h4.275V11H15.88v-.39h-.39v-.39h-.78v-.39h-.39v-.39h-.39v.39h-.39V11h-.39V7.115h.39v.39h.39v.39h.39v.78h.39v.39h.39v.39h.39v.39h.39v.39h.39v.375Zm6.615-3.51v1.95h-.39v.39h-.39v.39h-.39v.39h-.78v.39h-.78v-.39h.39v-.39h.39v-.39h.39V7.88h-.39v-.39h-.78V7.1h-.78v-.39H17.8v-.39h-1.56v-.39h-1.17v-.315h-.78v-.39h-.39v-.39h-.39v-.39h-.39v-2.01h.39v-.39h.39v-.39h.39v-.39h.78v-.39h.78v.39h-.39v.39h-.39v.39h-.39v1.56h.39v.39h.78v.39h.78v.39h1.575v.39h1.56v.39h1.17v.39h.78v.39h.39v.39h.39v.39l.39-.015ZM30.288.905h-3.885v-.39h4.275v.39h.78v.39h.39v.39h.39v.39h.39v-.39h.39V.515h.39v4.47h-.39V4.01h-.39v-.39h-.39v-.78h-.39v-.39h-.39v-.39h-.39v-.39h-.39v-.39h-.39V.905Zm-3.105 9.705h4.275V11h-4.665v-.39h-.39v-.39h-.78v-.39h-.39v-.39h-.39v.39h-.39V11h-.39V7.115h.39v.39h.39v.39h.39v.78h.39v.39h.39v.39h.39v.39h.39v.39h.39v.375Zm6.615-3.51v1.95h-.39v.39h-.39v.39h-.39v.39h-.78v.39h-.78v-.39h.39v-.39h.39v-.39h.39V7.88h-.39v-.39h-.78V7.1h-.78v-.39h-1.575v-.39h-1.56v-.39h-1.17v-.315h-.78v-.39h-.39v-.39h-.39v-.39h-.39v-2.01h.39v-.39h.39v-.39h.39v-.39h.78v-.39h.78v.39h-.39v.39h-.39v.39h-.39v1.56h.39v.39h.78v.39h.78v.39h1.575v.39h1.56v.39h1.17v.39h.78v.39h.39v.39h.39v.39l.39-.015ZM35.426.29V11h1.755V6.26h5.235v-1.5h-5.235V1.79h5.55V.29h-7.305Zm7.905 0v1.5h3.51V11h1.755V1.79h3.51V.29h-8.775Z" fill="#171717"/></svg>