<svg width="1410" height="183" fill="none" xmlns="http://www.w3.org/2000/svg"><path d="M.36.93V183h20.91V38.16h.765L85.02 183h18.87l62.985-144.84h.765V183h20.91V.93h-26.01L94.965 156.225H94.2L26.37.93H.36Zm278.163 0L206.868 183h22.44l19.38-51h83.64l19.38 51h22.695L302.748.93h-24.225Zm-23.205 113.475 34.935-91.035h1.02l34.425 91.035h-70.38Zm235.168-103.02h-66.045v-6.63h72.675v6.63h13.26v6.63h6.63v6.63h6.63v6.63h6.63v-6.63h6.63V4.755h6.63v75.99h-6.63V64.17h-6.63v-6.63h-6.63V44.28h-6.63v-6.63h-6.63v-6.63h-6.63v-6.63h-6.63v-6.63h-6.63v-6.375ZM437.701 176.37h72.675V183h-79.305v-6.63h-6.63v-6.63h-13.26v-6.63h-6.63v-6.63h-6.63v6.63h-6.63V183h-6.63v-66.045h6.63v6.63h6.63v6.63h6.63v13.26h6.63v6.63h6.63v6.63h6.63v6.63h6.63v6.63h6.63v6.375Zm112.455-59.67v33.15h-6.63v6.63h-6.63v6.63h-6.63v6.63h-13.26v6.63h-13.26v-6.63h6.63v-6.63h6.63v-6.63h6.63v-26.52h-6.63v-6.63h-13.26v-6.63h-13.26v-6.63h-26.775v-6.63h-26.52v-6.63h-19.89v-5.355h-13.26v-6.63h-6.63v-6.63h-6.63v-6.63h-6.63v-34.17h6.63v-6.63h6.63v-6.63h6.63v-6.63h13.26v-6.63h13.26v6.63h-6.63v6.63h-6.63v6.63h-6.63v26.52h6.63v6.63h13.26v6.63h13.26v6.63h26.775v6.63h26.52v6.63h19.89v6.63h13.26v6.63h6.63v6.63h6.63v6.63l6.63-.255ZM697.173.93l-97.92 94.605V.93h-20.91V183h20.91v-63.75l28.305-26.775L707.883 183h28.05l-93.84-104.04L724.458.93h-27.285Zm154.895 10.455h-66.045v-6.63h72.675v6.63h13.26v6.63h6.63v6.63h6.63v6.63h6.63v-6.63h6.63V4.755h6.63v75.99h-6.63V64.17h-6.63v-6.63h-6.63V44.28h-6.63v-6.63h-6.63v-6.63h-6.63v-6.63h-6.63v-6.63h-6.63v-6.375ZM799.283 176.37h72.675V183h-79.305v-6.63h-6.63v-6.63h-13.26v-6.63h-6.63v-6.63h-6.63v6.63h-6.63V183h-6.63v-66.045h6.63v6.63h6.63v6.63h6.63v13.26h6.63v6.63h6.63v6.63h6.63v6.63h6.63v6.63h6.63v6.375Zm112.455-59.67v33.15h-6.63v6.63h-6.63v6.63h-6.63v6.63h-13.26v6.63h-13.26v-6.63h6.63v-6.63h6.63v-6.63h6.63v-26.52h-6.63v-6.63h-13.26v-6.63h-13.26v-6.63h-26.775v-6.63h-26.52v-6.63h-19.89v-5.355h-13.26v-6.63h-6.63v-6.63h-6.63v-6.63h-6.63v-34.17h6.63v-6.63h6.63v-6.63h6.63v-6.63h13.26v-6.63h13.26v6.63h-6.63v6.63h-6.63v6.63h-6.63v26.52h6.63v6.63h13.26v6.63h13.26v6.63h26.775v6.63h26.52v6.63h19.89v6.63h13.26v6.63h6.63v6.63h6.63v6.63l6.63-.255ZM944.36.93V183h20.91V33.315h.765L1069.57 183h21.42V.93h-20.92v148.155h-.76L966.29.93h-21.93Zm183.28 0V183h20.91V98.34h95.63V80.235h-95.63v-61.2h100.98V.93h-121.89Zm133.15 0v18.105h64.26V183h20.65V19.035h64.26V.93h-149.17Z" fill="#000"/></svg>